<?xml version="1.0" standalone="no"?>
<!DOCTYPE svg PUBLIC "-//W3C//DTD SVG 20010904//EN"
 "http://www.w3.org/TR/2001/REC-SVG-20010904/DTD/svg10.dtd">
<svg version="1.0" xmlns="http://www.w3.org/2000/svg"
 width="466.000000pt" height="466.000000pt" viewBox="0 0 466.000000 466.000000"
 preserveAspectRatio="xMidYMid meet">
<metadata>
Created by potrace 1.11, written by Peter Selinger 2001-2013
</metadata>
<g transform="translate(0.000000,466.000000) scale(0.100000,-0.100000)"
fill="#000000" stroke="none">
<path d="M361 3395 c-5 -5 -7 -377 -6 -825 1 -730 3 -822 18 -884 52 -207 185
-345 375 -385 85 -18 243 -7 347 23 49 15 94 31 101 36 8 7 3 46 -18 142 -15
73 -30 138 -32 144 -3 7 -27 3 -73 -12 -160 -55 -256 -13 -291 128 -9 34 -12
264 -12 842 0 438 -3 797 -7 797 -46 7 -396 2 -402 -6z"/>
<path d="M1905 2743 c-136 -29 -287 -110 -376 -202 -137 -143 -211 -331 -208
-531 3 -199 72 -368 205 -504 229 -233 562 -288 878 -147 152 69 348 216 547
413 l37 38 54 -51 c54 -52 121 -113 176 -161 37 -33 205 -156 247 -181 60 -36
179 -88 249 -108 143 -41 342 -32 480 23 61 24 157 81 194 115 15 14 41 38 59
53 83 73 165 223 197 360 21 92 18 257 -6 345 -60 213 -196 381 -388 476 -104
51 -182 70 -310 74 -96 3 -130 0 -205 -19 -204 -53 -411 -186 -663 -427 l-83
-79 -38 37 c-278 272 -488 412 -705 469 -84 22 -254 26 -341 7z m2155 -307
c172 -63 285 -207 297 -382 10 -130 -33 -247 -123 -338 -111 -114 -263 -157
-421 -121 -153 36 -309 138 -536 352 l-78 73 38 36 c21 20 63 59 93 88 86 82
258 209 335 246 106 52 177 69 270 65 44 -2 100 -10 125 -19z m-1877 -24 c77
-36 127 -78 171 -146 145 -220 70 -519 -157 -631 -247 -122 -525 37 -570 325
-32 207 103 421 302 477 73 20 180 10 254 -25z m578 -373 c12 -12 17 -24 13
-28 -5 -3 -17 -14 -26 -23 -15 -16 -16 -15 -20 27 -4 50 2 55 33 24z"/>
</g>
</svg>
